# xmcd
#
# Track frame offsets:
#	150
#	13840
#	26461
#	36474
#	49198
#	60318
#	72535
#	84413
#	97467
#	111200
#	121089
#	132699
#	145090
#	157546
#	169250
#	179641
#	191609
#	202811
#	213698
#	223217
#	234133
#	246550
#	258551
#
# Disc length: 3607 seconds
#
# Revision: 1
# Processed by: cddbd v1.5.2PL0 Copyright (c) Steve Scherf et al.
# Submitted via: EasyCDDAExtractor 11.0.3.1
#
DISCID=5d0e1517
DTITLE=Bobby Bare - The Singles 1959-1969 [cd 1]
DYEAR=1969
DGENRE=Country
TTITLE0=All American Boy
TTITLE1=Shame On Me
TTITLE2=Above And Beyond
TTITLE3=Detroit City
TTITLE4=Heart Of Ice
TTITLE5=Five Hundred Miles Away From Home
TTITLE6=It All Depends On Linda
TTITLE7=Miller's Cave
TTITLE8=Jeannie's Last Kiss
TTITLE9=Have I Stayed Away Too Long
TTITLE10=More Than A Poor Boy Could Give
TTITLE11=Four Strong  Winds
TTITLE12=Take Me Home
TTITLE13=Times Are Gettin' Hard
TTITLE14=One Day At A Time
TTITLE15=It's Alright
TTITLE16=She Picked A Perfect Day
TTITLE17=Just To Satisfy You
TTITLE18=Memories
TTITLE19=Talk Me Some Sense
TTITLE20=Delia's Gone
TTITLE21=In The Same Old Way
TTITLE22=The Long Black Veil
EXTD=
EXTT0=
EXTT1=
EXTT2=
EXTT3=
EXTT4=
EXTT5=
EXTT6=
EXTT7=
EXTT8=
EXTT9=
EXTT10=
EXTT11=
EXTT12=
EXTT13=
EXTT14=
EXTT15=
EXTT16=
EXTT17=
EXTT18=
EXTT19=
EXTT20=
EXTT21=
EXTT22=
PLAYORDER=
